G04 #@! TF.GenerationSoftware,KiCad,Pcbnew,(5.1.5)-3*
G04 #@! TF.CreationDate,2020-06-01T09:33:33-04:00*
G04 #@! TF.ProjectId,OpenUSB2Serial,4f70656e-5553-4423-9253-657269616c2e,rev?*
G04 #@! TF.SameCoordinates,Original*
G04 #@! TF.FileFunction,Legend,Top*
G04 #@! TF.FilePolarity,Positive*
%FSLAX46Y46*%
G04 Gerber Fmt 4.6, Leading zero omitted, Abs format (unit mm)*
G04 Created by KiCad (PCBNEW (5.1.5)-3) date 2020-06-01 09:33:33*
%MOMM*%
%LPD*%
G04 APERTURE LIST*
%ADD10C,0.120000*%
%ADD11C,0.150000*%
G04 APERTURE END LIST*
D10*
X105283000Y-92329000D02*
X104902000Y-92329000D01*
X105283000Y-90424000D02*
X105283000Y-92329000D01*
X105283000Y-88011000D02*
X105283000Y-88646000D01*
X105283000Y-83312000D02*
X105283000Y-86360000D01*
X105283000Y-79375000D02*
X105283000Y-80010000D01*
X104902000Y-79375000D02*
X105283000Y-79375000D01*
X101854000Y-92329000D02*
X102235000Y-92329000D01*
X101854000Y-79375000D02*
X101854000Y-92329000D01*
X102235000Y-79375000D02*
X101854000Y-79375000D01*
D11*
X105175095Y-89458809D02*
X105556047Y-89192142D01*
X105175095Y-89001666D02*
X105975095Y-89001666D01*
X105975095Y-89306428D01*
X105937000Y-89382619D01*
X105898904Y-89420714D01*
X105822714Y-89458809D01*
X105708428Y-89458809D01*
X105632238Y-89420714D01*
X105594142Y-89382619D01*
X105556047Y-89306428D01*
X105556047Y-89001666D01*
X105175095Y-89725476D02*
X105708428Y-90144523D01*
X105708428Y-89725476D02*
X105175095Y-90144523D01*
X105975095Y-86569619D02*
X105975095Y-87026761D01*
X105175095Y-86798190D02*
X105975095Y-86798190D01*
X105175095Y-87217238D02*
X105708428Y-87636285D01*
X105708428Y-87217238D02*
X105175095Y-87636285D01*
X105719619Y-79152714D02*
X105719619Y-78581285D01*
X105719619Y-78867000D02*
X106719619Y-78867000D01*
X106576761Y-78771761D01*
X106481523Y-78676523D01*
X106433904Y-78581285D01*
X105735428Y-80684809D02*
X105735428Y-80351476D01*
X105211619Y-80351476D02*
X106211619Y-80351476D01*
X106211619Y-80827666D01*
X106211619Y-81065761D02*
X106211619Y-81637190D01*
X105211619Y-81351476D02*
X106211619Y-81351476D01*
X105211619Y-81970523D02*
X106211619Y-81970523D01*
X106211619Y-82208619D01*
X106164000Y-82351476D01*
X106068761Y-82446714D01*
X105973523Y-82494333D01*
X105783047Y-82541952D01*
X105640190Y-82541952D01*
X105449714Y-82494333D01*
X105354476Y-82446714D01*
X105259238Y-82351476D01*
X105211619Y-82208619D01*
X105211619Y-81970523D01*
X105211619Y-82970523D02*
X106211619Y-82970523D01*
D10*
X116124222Y-80034200D02*
X116641378Y-80034200D01*
X116124222Y-78614200D02*
X116641378Y-78614200D01*
X118999922Y-71310000D02*
X119517078Y-71310000D01*
X118999922Y-69890000D02*
X119517078Y-69890000D01*
X112232000Y-90189000D02*
X118242000Y-90189000D01*
X114482000Y-97009000D02*
X118242000Y-97009000D01*
X118242000Y-90189000D02*
X118242000Y-91449000D01*
X118242000Y-97009000D02*
X118242000Y-95749000D01*
X118090000Y-84836000D02*
X118090000Y-81386000D01*
X118090000Y-84836000D02*
X118090000Y-86786000D01*
X107970000Y-84836000D02*
X107970000Y-82886000D01*
X107970000Y-84836000D02*
X107970000Y-86786000D01*
X103890578Y-69890000D02*
X103373422Y-69890000D01*
X103890578Y-71310000D02*
X103373422Y-71310000D01*
X103890578Y-72442000D02*
X103373422Y-72442000D01*
X103890578Y-73862000D02*
X103373422Y-73862000D01*
X116346000Y-65696000D02*
X106946000Y-65696000D01*
X106946000Y-71496000D02*
X106946000Y-69496000D01*
X106946000Y-67596000D02*
X106946000Y-65696000D01*
X116346000Y-71496000D02*
X116346000Y-69496000D01*
X116346000Y-67596000D02*
X116346000Y-65696000D01*
X109930000Y-92079578D02*
X109930000Y-91562422D01*
X108510000Y-92079578D02*
X108510000Y-91562422D01*
X118994422Y-73862000D02*
X119511578Y-73862000D01*
X118994422Y-72442000D02*
X119511578Y-72442000D01*
X109930000Y-96143578D02*
X109930000Y-95626422D01*
X108510000Y-96143578D02*
X108510000Y-95626422D01*
X120471000Y-85577178D02*
X120471000Y-85060022D01*
X119051000Y-85577178D02*
X119051000Y-85060022D01*
D11*
X116216133Y-78031342D02*
X116168514Y-78078961D01*
X116025657Y-78126580D01*
X115930419Y-78126580D01*
X115787561Y-78078961D01*
X115692323Y-77983723D01*
X115644704Y-77888485D01*
X115597085Y-77698009D01*
X115597085Y-77555152D01*
X115644704Y-77364676D01*
X115692323Y-77269438D01*
X115787561Y-77174200D01*
X115930419Y-77126580D01*
X116025657Y-77126580D01*
X116168514Y-77174200D01*
X116216133Y-77221819D01*
X117073276Y-77126580D02*
X116882800Y-77126580D01*
X116787561Y-77174200D01*
X116739942Y-77221819D01*
X116644704Y-77364676D01*
X116597085Y-77555152D01*
X116597085Y-77936104D01*
X116644704Y-78031342D01*
X116692323Y-78078961D01*
X116787561Y-78126580D01*
X116978038Y-78126580D01*
X117073276Y-78078961D01*
X117120895Y-78031342D01*
X117168514Y-77936104D01*
X117168514Y-77698009D01*
X117120895Y-77602771D01*
X117073276Y-77555152D01*
X116978038Y-77507533D01*
X116787561Y-77507533D01*
X116692323Y-77555152D01*
X116644704Y-77602771D01*
X116597085Y-77698009D01*
X119091833Y-69318142D02*
X119044214Y-69365761D01*
X118901357Y-69413380D01*
X118806119Y-69413380D01*
X118663261Y-69365761D01*
X118568023Y-69270523D01*
X118520404Y-69175285D01*
X118472785Y-68984809D01*
X118472785Y-68841952D01*
X118520404Y-68651476D01*
X118568023Y-68556238D01*
X118663261Y-68461000D01*
X118806119Y-68413380D01*
X118901357Y-68413380D01*
X119044214Y-68461000D01*
X119091833Y-68508619D01*
X119996595Y-68413380D02*
X119520404Y-68413380D01*
X119472785Y-68889571D01*
X119520404Y-68841952D01*
X119615642Y-68794333D01*
X119853738Y-68794333D01*
X119948976Y-68841952D01*
X119996595Y-68889571D01*
X120044214Y-68984809D01*
X120044214Y-69222904D01*
X119996595Y-69318142D01*
X119948976Y-69365761D01*
X119853738Y-69413380D01*
X119615642Y-69413380D01*
X119520404Y-69365761D01*
X119472785Y-69318142D01*
X115702380Y-94161904D02*
X116511904Y-94161904D01*
X116607142Y-94114285D01*
X116654761Y-94066666D01*
X116702380Y-93971428D01*
X116702380Y-93780952D01*
X116654761Y-93685714D01*
X116607142Y-93638095D01*
X116511904Y-93590476D01*
X115702380Y-93590476D01*
X115797619Y-93161904D02*
X115750000Y-93114285D01*
X115702380Y-93019047D01*
X115702380Y-92780952D01*
X115750000Y-92685714D01*
X115797619Y-92638095D01*
X115892857Y-92590476D01*
X115988095Y-92590476D01*
X116130952Y-92638095D01*
X116702380Y-93209523D01*
X116702380Y-92590476D01*
X114852380Y-85711904D02*
X115661904Y-85711904D01*
X115757142Y-85664285D01*
X115804761Y-85616666D01*
X115852380Y-85521428D01*
X115852380Y-85330952D01*
X115804761Y-85235714D01*
X115757142Y-85188095D01*
X115661904Y-85140476D01*
X114852380Y-85140476D01*
X115852380Y-84140476D02*
X115852380Y-84711904D01*
X115852380Y-84426190D02*
X114852380Y-84426190D01*
X114995238Y-84521428D01*
X115090476Y-84616666D01*
X115138095Y-84711904D01*
X103465333Y-69337180D02*
X103132000Y-68860990D01*
X102893904Y-69337180D02*
X102893904Y-68337180D01*
X103274857Y-68337180D01*
X103370095Y-68384800D01*
X103417714Y-68432419D01*
X103465333Y-68527657D01*
X103465333Y-68670514D01*
X103417714Y-68765752D01*
X103370095Y-68813371D01*
X103274857Y-68860990D01*
X102893904Y-68860990D01*
X103846285Y-68432419D02*
X103893904Y-68384800D01*
X103989142Y-68337180D01*
X104227238Y-68337180D01*
X104322476Y-68384800D01*
X104370095Y-68432419D01*
X104417714Y-68527657D01*
X104417714Y-68622895D01*
X104370095Y-68765752D01*
X103798666Y-69337180D01*
X104417714Y-69337180D01*
X103465333Y-75254380D02*
X103132000Y-74778190D01*
X102893904Y-75254380D02*
X102893904Y-74254380D01*
X103274857Y-74254380D01*
X103370095Y-74302000D01*
X103417714Y-74349619D01*
X103465333Y-74444857D01*
X103465333Y-74587714D01*
X103417714Y-74682952D01*
X103370095Y-74730571D01*
X103274857Y-74778190D01*
X102893904Y-74778190D01*
X104417714Y-75254380D02*
X103846285Y-75254380D01*
X104132000Y-75254380D02*
X104132000Y-74254380D01*
X104036761Y-74397238D01*
X103941523Y-74492476D01*
X103846285Y-74540095D01*
X111316666Y-70552380D02*
X111316666Y-71266666D01*
X111269047Y-71409523D01*
X111173809Y-71504761D01*
X111030952Y-71552380D01*
X110935714Y-71552380D01*
X111745238Y-70647619D02*
X111792857Y-70600000D01*
X111888095Y-70552380D01*
X112126190Y-70552380D01*
X112221428Y-70600000D01*
X112269047Y-70647619D01*
X112316666Y-70742857D01*
X112316666Y-70838095D01*
X112269047Y-70980952D01*
X111697619Y-71552380D01*
X112316666Y-71552380D01*
X107927142Y-91987666D02*
X107974761Y-92035285D01*
X108022380Y-92178142D01*
X108022380Y-92273380D01*
X107974761Y-92416238D01*
X107879523Y-92511476D01*
X107784285Y-92559095D01*
X107593809Y-92606714D01*
X107450952Y-92606714D01*
X107260476Y-92559095D01*
X107165238Y-92511476D01*
X107070000Y-92416238D01*
X107022380Y-92273380D01*
X107022380Y-92178142D01*
X107070000Y-92035285D01*
X107117619Y-91987666D01*
X107355714Y-91130523D02*
X108022380Y-91130523D01*
X106974761Y-91368619D02*
X107689047Y-91606714D01*
X107689047Y-90987666D01*
X118979333Y-75307142D02*
X118931714Y-75354761D01*
X118788857Y-75402380D01*
X118693619Y-75402380D01*
X118550761Y-75354761D01*
X118455523Y-75259523D01*
X118407904Y-75164285D01*
X118360285Y-74973809D01*
X118360285Y-74830952D01*
X118407904Y-74640476D01*
X118455523Y-74545238D01*
X118550761Y-74450000D01*
X118693619Y-74402380D01*
X118788857Y-74402380D01*
X118931714Y-74450000D01*
X118979333Y-74497619D01*
X119312666Y-74402380D02*
X119931714Y-74402380D01*
X119598380Y-74783333D01*
X119741238Y-74783333D01*
X119836476Y-74830952D01*
X119884095Y-74878571D01*
X119931714Y-74973809D01*
X119931714Y-75211904D01*
X119884095Y-75307142D01*
X119836476Y-75354761D01*
X119741238Y-75402380D01*
X119455523Y-75402380D01*
X119360285Y-75354761D01*
X119312666Y-75307142D01*
X107927142Y-96051666D02*
X107974761Y-96099285D01*
X108022380Y-96242142D01*
X108022380Y-96337380D01*
X107974761Y-96480238D01*
X107879523Y-96575476D01*
X107784285Y-96623095D01*
X107593809Y-96670714D01*
X107450952Y-96670714D01*
X107260476Y-96623095D01*
X107165238Y-96575476D01*
X107070000Y-96480238D01*
X107022380Y-96337380D01*
X107022380Y-96242142D01*
X107070000Y-96099285D01*
X107117619Y-96051666D01*
X107117619Y-95670714D02*
X107070000Y-95623095D01*
X107022380Y-95527857D01*
X107022380Y-95289761D01*
X107070000Y-95194523D01*
X107117619Y-95146904D01*
X107212857Y-95099285D01*
X107308095Y-95099285D01*
X107450952Y-95146904D01*
X108022380Y-95718333D01*
X108022380Y-95099285D01*
X120118142Y-82640466D02*
X120165761Y-82688085D01*
X120213380Y-82830942D01*
X120213380Y-82926180D01*
X120165761Y-83069038D01*
X120070523Y-83164276D01*
X119975285Y-83211895D01*
X119784809Y-83259514D01*
X119641952Y-83259514D01*
X119451476Y-83211895D01*
X119356238Y-83164276D01*
X119261000Y-83069038D01*
X119213380Y-82926180D01*
X119213380Y-82830942D01*
X119261000Y-82688085D01*
X119308619Y-82640466D01*
X120213380Y-81688085D02*
X120213380Y-82259514D01*
X120213380Y-81973800D02*
X119213380Y-81973800D01*
X119356238Y-82069038D01*
X119451476Y-82164276D01*
X119499095Y-82259514D01*
M02*
