M48
INCH,TZ
T1C0.0157
T2C0.0236
T3C0.0394
%
G90
G05
T1
X41220Y-34783
X41926Y-34374
X42448Y-31508
X42967Y-28090
X43300Y-30300
X43665Y-36519
X43750Y-31150
X44054Y-30296
X44400Y-31150
X44700Y-33200
X44764Y-31654
X44850Y-28050
X44850Y-30200
X45800Y-37600
X46181Y-33366
T3
X40800Y-31300
X40800Y-32300
X40800Y-33300
X40800Y-34300
X40800Y-35300
X40800Y-36300
X40800Y-37300
T2
G00X42254Y-27105
M15
G01X42254Y-26869
M16
G05
G00X42254Y-28849
M15
G01X42254Y-28416
M16
G05
G00X45656Y-27105
M15
G01X45656Y-26869
M16
G05
G00X45656Y-28849
M15
G01X45656Y-28416
M16
G05
T0
M30
