G04 #@! TF.GenerationSoftware,KiCad,Pcbnew,(5.1.5)-3*
G04 #@! TF.CreationDate,2020-06-01T09:33:33-04:00*
G04 #@! TF.ProjectId,OpenUSB2Serial,4f70656e-5553-4423-9253-657269616c2e,rev?*
G04 #@! TF.SameCoordinates,Original*
G04 #@! TF.FileFunction,Copper,L2,Bot*
G04 #@! TF.FilePolarity,Positive*
%FSLAX46Y46*%
G04 Gerber Fmt 4.6, Leading zero omitted, Abs format (unit mm)*
G04 Created by KiCad (PCBNEW (5.1.5)-3) date 2020-06-01 09:33:33*
%MOMM*%
%LPD*%
G04 APERTURE LIST*
%ADD10O,1.700000X1.700000*%
%ADD11R,1.700000X1.700000*%
%ADD12C,0.100000*%
%ADD13O,1.000000X2.100000*%
%ADD14O,1.000000X1.600000*%
%ADD15C,0.800000*%
%ADD16C,0.250000*%
%ADD17C,0.400000*%
%ADD18C,0.254000*%
G04 APERTURE END LIST*
D10*
X103632000Y-94742000D03*
X103632000Y-92202000D03*
X103632000Y-89662000D03*
X103632000Y-87122000D03*
X103632000Y-84582000D03*
X103632000Y-82042000D03*
D11*
X103632000Y-79502000D03*
G04 #@! TA.AperFunction,SMDPad,CuDef*
D12*
G36*
X105950000Y-76300000D02*
G01*
X106450000Y-75550000D01*
X107450000Y-75550000D01*
X107450000Y-77050000D01*
X106450000Y-77050000D01*
X105950000Y-76300000D01*
G37*
G04 #@! TD.AperFunction*
G04 #@! TA.AperFunction,Conductor*
G36*
X105650000Y-76300000D02*
G01*
X106150000Y-77050000D01*
X103750000Y-77050000D01*
X104250000Y-76300000D01*
X103750000Y-75550000D01*
X106150000Y-75550000D01*
X105650000Y-76300000D01*
G37*
G04 #@! TD.AperFunction*
G04 #@! TA.AperFunction,SMDPad,CuDef*
G36*
X103950000Y-76300000D02*
G01*
X103450000Y-77050000D01*
X102450000Y-77050000D01*
X102450000Y-75550000D01*
X103450000Y-75550000D01*
X103950000Y-76300000D01*
G37*
G04 #@! TD.AperFunction*
D13*
X107326000Y-72726000D03*
X115966000Y-72726000D03*
D14*
X115966000Y-68546000D03*
X107326000Y-68546000D03*
D15*
X104700000Y-88350000D03*
X110908500Y-92758500D03*
X113919000Y-71247000D03*
X113919000Y-76708000D03*
X116332000Y-95504000D03*
X109135153Y-71349273D03*
X113538000Y-84328000D03*
X106491000Y-87311000D03*
X112776000Y-79121000D03*
X111125000Y-79121000D03*
X109982000Y-76962000D03*
X111896000Y-76953000D03*
X113700000Y-80400000D03*
X117300000Y-84750000D03*
X107818852Y-80031148D03*
D16*
X102900000Y-90950000D02*
X109100000Y-90950000D01*
X101950000Y-90000000D02*
X102900000Y-90950000D01*
X101950000Y-77300000D02*
X101950000Y-90000000D01*
X109100000Y-90950000D02*
X110908500Y-92758500D01*
X102950000Y-76300000D02*
X101950000Y-77300000D01*
X109535152Y-71749272D02*
X109135153Y-71349273D01*
X113919000Y-71247000D02*
X109237426Y-71247000D01*
X106950000Y-76300000D02*
X109535152Y-73714848D01*
X109535152Y-73714848D02*
X109535152Y-71749272D01*
X109237426Y-71247000D02*
X109135153Y-71349273D01*
D17*
X116332000Y-92075000D02*
X116332000Y-95504000D01*
X119761000Y-88646000D02*
X116332000Y-92075000D01*
X119761000Y-77597000D02*
X119761000Y-88646000D01*
X113919000Y-76708000D02*
X118872000Y-76708000D01*
X118872000Y-76708000D02*
X119761000Y-77597000D01*
D16*
X113538000Y-84328000D02*
X108204000Y-89662000D01*
X108204000Y-89662000D02*
X103632000Y-89662000D01*
X106491000Y-84901000D02*
X103632000Y-82042000D01*
X106491000Y-87311000D02*
X106491000Y-84901000D01*
X112776000Y-79121000D02*
X111125000Y-79121000D01*
X109991000Y-76953000D02*
X109982000Y-76962000D01*
X111896000Y-76953000D02*
X109991000Y-76953000D01*
X108200000Y-80400000D02*
X113700000Y-80400000D01*
X113700000Y-80400000D02*
X117900000Y-80400000D01*
X117900000Y-80400000D02*
X118800000Y-81300000D01*
X118800000Y-81300000D02*
X118800000Y-83550000D01*
X117600000Y-84750000D02*
X117300000Y-84750000D01*
X118800000Y-83550000D02*
X117600000Y-84750000D01*
X104950000Y-77200000D02*
X106650000Y-78900000D01*
X104950000Y-76300000D02*
X104950000Y-77200000D01*
X106650000Y-78900000D02*
X108200000Y-80400000D01*
D18*
G36*
X120067468Y-65889217D02*
G01*
X120362269Y-65978222D01*
X120634160Y-66122790D01*
X120872796Y-66317417D01*
X121069080Y-66554684D01*
X121215546Y-66825566D01*
X121306606Y-67119733D01*
X121341000Y-67446978D01*
X121341001Y-96370881D01*
X121308783Y-96699468D01*
X121219778Y-96994269D01*
X121075211Y-97266158D01*
X120880585Y-97504793D01*
X120643315Y-97701080D01*
X120372433Y-97847546D01*
X120078267Y-97938606D01*
X119751022Y-97973000D01*
X103019109Y-97973000D01*
X102690532Y-97940783D01*
X102395731Y-97851778D01*
X102123842Y-97707211D01*
X101885207Y-97512585D01*
X101688920Y-97275315D01*
X101542454Y-97004433D01*
X101451394Y-96710267D01*
X101417000Y-96383022D01*
X101417000Y-90144509D01*
X101437552Y-90212262D01*
X101488809Y-90308157D01*
X101488810Y-90308158D01*
X101557790Y-90392211D01*
X101578852Y-90409496D01*
X102490504Y-91321149D01*
X102507789Y-91342211D01*
X102591842Y-91411191D01*
X102615955Y-91424080D01*
X102500337Y-91597114D01*
X102404074Y-91829513D01*
X102355000Y-92076226D01*
X102355000Y-92327774D01*
X102404074Y-92574487D01*
X102500337Y-92806886D01*
X102640089Y-93016040D01*
X102817960Y-93193911D01*
X103027114Y-93333663D01*
X103259513Y-93429926D01*
X103471034Y-93472000D01*
X103259513Y-93514074D01*
X103027114Y-93610337D01*
X102817960Y-93750089D01*
X102640089Y-93927960D01*
X102500337Y-94137114D01*
X102404074Y-94369513D01*
X102355000Y-94616226D01*
X102355000Y-94867774D01*
X102404074Y-95114487D01*
X102500337Y-95346886D01*
X102640089Y-95556040D01*
X102817960Y-95733911D01*
X103027114Y-95873663D01*
X103259513Y-95969926D01*
X103506226Y-96019000D01*
X103757774Y-96019000D01*
X104004487Y-95969926D01*
X104236886Y-95873663D01*
X104446040Y-95733911D01*
X104623911Y-95556040D01*
X104763663Y-95346886D01*
X104859926Y-95114487D01*
X104909000Y-94867774D01*
X104909000Y-94616226D01*
X104859926Y-94369513D01*
X104763663Y-94137114D01*
X104623911Y-93927960D01*
X104446040Y-93750089D01*
X104236886Y-93610337D01*
X104004487Y-93514074D01*
X103792966Y-93472000D01*
X104004487Y-93429926D01*
X104236886Y-93333663D01*
X104446040Y-93193911D01*
X104623911Y-93016040D01*
X104763663Y-92806886D01*
X104859926Y-92574487D01*
X104909000Y-92327774D01*
X104909000Y-92076226D01*
X104859926Y-91829513D01*
X104763663Y-91597114D01*
X104700110Y-91502000D01*
X108871356Y-91502000D01*
X110081500Y-92712146D01*
X110081500Y-92839952D01*
X110113282Y-92999727D01*
X110175623Y-93150231D01*
X110266128Y-93285681D01*
X110381319Y-93400872D01*
X110516769Y-93491377D01*
X110667273Y-93553718D01*
X110827048Y-93585500D01*
X110989952Y-93585500D01*
X111149727Y-93553718D01*
X111300231Y-93491377D01*
X111435681Y-93400872D01*
X111550872Y-93285681D01*
X111641377Y-93150231D01*
X111703718Y-92999727D01*
X111735500Y-92839952D01*
X111735500Y-92677048D01*
X111703718Y-92517273D01*
X111641377Y-92366769D01*
X111550872Y-92231319D01*
X111435681Y-92116128D01*
X111300231Y-92025623D01*
X111149727Y-91963282D01*
X110989952Y-91931500D01*
X110862146Y-91931500D01*
X109509500Y-90578856D01*
X109492211Y-90557789D01*
X109408158Y-90488809D01*
X109312263Y-90437552D01*
X109208211Y-90405988D01*
X109127109Y-90398000D01*
X109127106Y-90398000D01*
X109100000Y-90395330D01*
X109072894Y-90398000D01*
X104676056Y-90398000D01*
X104763663Y-90266886D01*
X104785569Y-90214000D01*
X108176894Y-90214000D01*
X108204000Y-90216670D01*
X108231106Y-90214000D01*
X108231109Y-90214000D01*
X108312211Y-90206012D01*
X108416263Y-90174448D01*
X108512158Y-90123191D01*
X108596211Y-90054211D01*
X108613501Y-90033143D01*
X113491646Y-85155000D01*
X113619452Y-85155000D01*
X113779227Y-85123218D01*
X113929731Y-85060877D01*
X114065181Y-84970372D01*
X114180372Y-84855181D01*
X114270877Y-84719731D01*
X114333218Y-84569227D01*
X114365000Y-84409452D01*
X114365000Y-84246548D01*
X114333218Y-84086773D01*
X114270877Y-83936269D01*
X114180372Y-83800819D01*
X114065181Y-83685628D01*
X113929731Y-83595123D01*
X113779227Y-83532782D01*
X113619452Y-83501000D01*
X113456548Y-83501000D01*
X113296773Y-83532782D01*
X113146269Y-83595123D01*
X113010819Y-83685628D01*
X112895628Y-83800819D01*
X112805123Y-83936269D01*
X112742782Y-84086773D01*
X112711000Y-84246548D01*
X112711000Y-84374354D01*
X107975356Y-89110000D01*
X104785569Y-89110000D01*
X104763663Y-89057114D01*
X104623911Y-88847960D01*
X104446040Y-88670089D01*
X104236886Y-88530337D01*
X104004487Y-88434074D01*
X103792966Y-88392000D01*
X104004487Y-88349926D01*
X104236886Y-88253663D01*
X104446040Y-88113911D01*
X104623911Y-87936040D01*
X104763663Y-87726886D01*
X104859926Y-87494487D01*
X104909000Y-87247774D01*
X104909000Y-86996226D01*
X104859926Y-86749513D01*
X104763663Y-86517114D01*
X104623911Y-86307960D01*
X104446040Y-86130089D01*
X104236886Y-85990337D01*
X104004487Y-85894074D01*
X103792966Y-85852000D01*
X104004487Y-85809926D01*
X104236886Y-85713663D01*
X104446040Y-85573911D01*
X104623911Y-85396040D01*
X104763663Y-85186886D01*
X104859926Y-84954487D01*
X104909000Y-84707774D01*
X104909000Y-84456226D01*
X104859926Y-84209513D01*
X104763663Y-83977114D01*
X104717740Y-83908385D01*
X105939001Y-85129647D01*
X105939000Y-86693447D01*
X105848628Y-86783819D01*
X105758123Y-86919269D01*
X105695782Y-87069773D01*
X105664000Y-87229548D01*
X105664000Y-87392452D01*
X105695782Y-87552227D01*
X105758123Y-87702731D01*
X105848628Y-87838181D01*
X105963819Y-87953372D01*
X106099269Y-88043877D01*
X106249773Y-88106218D01*
X106409548Y-88138000D01*
X106572452Y-88138000D01*
X106732227Y-88106218D01*
X106882731Y-88043877D01*
X107018181Y-87953372D01*
X107133372Y-87838181D01*
X107223877Y-87702731D01*
X107286218Y-87552227D01*
X107318000Y-87392452D01*
X107318000Y-87229548D01*
X107286218Y-87069773D01*
X107223877Y-86919269D01*
X107133372Y-86783819D01*
X107043000Y-86693447D01*
X107043000Y-84928108D01*
X107045670Y-84901000D01*
X107041456Y-84858210D01*
X107035012Y-84792789D01*
X107003448Y-84688737D01*
X106952191Y-84592842D01*
X106883211Y-84508789D01*
X106862154Y-84491508D01*
X104838019Y-82467375D01*
X104859926Y-82414487D01*
X104909000Y-82167774D01*
X104909000Y-81916226D01*
X104859926Y-81669513D01*
X104763663Y-81437114D01*
X104623911Y-81227960D01*
X104446040Y-81050089D01*
X104355185Y-80989382D01*
X104482000Y-80990072D01*
X104606482Y-80977812D01*
X104726180Y-80941502D01*
X104836494Y-80882537D01*
X104933185Y-80803185D01*
X105012537Y-80706494D01*
X105071502Y-80596180D01*
X105107812Y-80476482D01*
X105120072Y-80352000D01*
X105117000Y-79787750D01*
X104958250Y-79629000D01*
X103759000Y-79629000D01*
X103759000Y-79649000D01*
X103505000Y-79649000D01*
X103505000Y-79629000D01*
X103485000Y-79629000D01*
X103485000Y-79375000D01*
X103505000Y-79375000D01*
X103505000Y-78175750D01*
X103759000Y-78175750D01*
X103759000Y-79375000D01*
X104958250Y-79375000D01*
X105117000Y-79216250D01*
X105120072Y-78652000D01*
X105107812Y-78527518D01*
X105071502Y-78407820D01*
X105012537Y-78297506D01*
X104933185Y-78200815D01*
X104836494Y-78121463D01*
X104726180Y-78062498D01*
X104606482Y-78026188D01*
X104482000Y-78013928D01*
X103917750Y-78017000D01*
X103759000Y-78175750D01*
X103505000Y-78175750D01*
X103346250Y-78017000D01*
X102782000Y-78013928D01*
X102657518Y-78026188D01*
X102537820Y-78062498D01*
X102502000Y-78081644D01*
X102502000Y-77528644D01*
X102551578Y-77479066D01*
X103450000Y-77479066D01*
X103534147Y-77470734D01*
X103599952Y-77450697D01*
X103666293Y-77470822D01*
X103750000Y-77479066D01*
X104473260Y-77479066D01*
X104487122Y-77505000D01*
X104488810Y-77508158D01*
X104557790Y-77592211D01*
X104578852Y-77609496D01*
X106243718Y-79274364D01*
X106246647Y-79277816D01*
X106262861Y-79293507D01*
X106278845Y-79309491D01*
X106282351Y-79312368D01*
X106991852Y-79998982D01*
X106991852Y-80112600D01*
X107023634Y-80272375D01*
X107085975Y-80422879D01*
X107176480Y-80558329D01*
X107291671Y-80673520D01*
X107427121Y-80764025D01*
X107577625Y-80826366D01*
X107737400Y-80858148D01*
X107888134Y-80858148D01*
X107891842Y-80861191D01*
X107895865Y-80863342D01*
X107899442Y-80866180D01*
X107943792Y-80888959D01*
X107987737Y-80912448D01*
X107992104Y-80913773D01*
X107996164Y-80915858D01*
X108044078Y-80929539D01*
X108091789Y-80944012D01*
X108096334Y-80944460D01*
X108100720Y-80945712D01*
X108150364Y-80949781D01*
X108172891Y-80952000D01*
X108177432Y-80952000D01*
X108209091Y-80954595D01*
X108231641Y-80952000D01*
X113082447Y-80952000D01*
X113172819Y-81042372D01*
X113308269Y-81132877D01*
X113458773Y-81195218D01*
X113618548Y-81227000D01*
X113781452Y-81227000D01*
X113941227Y-81195218D01*
X114091731Y-81132877D01*
X114227181Y-81042372D01*
X114317553Y-80952000D01*
X117671356Y-80952000D01*
X118248000Y-81528646D01*
X118248001Y-83321353D01*
X117593091Y-83976265D01*
X117541227Y-83954782D01*
X117381452Y-83923000D01*
X117218548Y-83923000D01*
X117058773Y-83954782D01*
X116908269Y-84017123D01*
X116772819Y-84107628D01*
X116657628Y-84222819D01*
X116567123Y-84358269D01*
X116504782Y-84508773D01*
X116473000Y-84668548D01*
X116473000Y-84831452D01*
X116504782Y-84991227D01*
X116567123Y-85141731D01*
X116657628Y-85277181D01*
X116772819Y-85392372D01*
X116908269Y-85482877D01*
X117058773Y-85545218D01*
X117218548Y-85577000D01*
X117381452Y-85577000D01*
X117541227Y-85545218D01*
X117691731Y-85482877D01*
X117827181Y-85392372D01*
X117942372Y-85277181D01*
X118032877Y-85141731D01*
X118063964Y-85066680D01*
X119134001Y-83996645D01*
X119134001Y-88386287D01*
X115910427Y-91609862D01*
X115886499Y-91629499D01*
X115808147Y-91724973D01*
X115749925Y-91833898D01*
X115720318Y-91931500D01*
X115714073Y-91952088D01*
X115701967Y-92075000D01*
X115705000Y-92105794D01*
X115705001Y-94961446D01*
X115689628Y-94976819D01*
X115599123Y-95112269D01*
X115536782Y-95262773D01*
X115505000Y-95422548D01*
X115505000Y-95585452D01*
X115536782Y-95745227D01*
X115599123Y-95895731D01*
X115689628Y-96031181D01*
X115804819Y-96146372D01*
X115940269Y-96236877D01*
X116090773Y-96299218D01*
X116250548Y-96331000D01*
X116413452Y-96331000D01*
X116573227Y-96299218D01*
X116723731Y-96236877D01*
X116859181Y-96146372D01*
X116974372Y-96031181D01*
X117064877Y-95895731D01*
X117127218Y-95745227D01*
X117159000Y-95585452D01*
X117159000Y-95422548D01*
X117127218Y-95262773D01*
X117064877Y-95112269D01*
X116974372Y-94976819D01*
X116959000Y-94961447D01*
X116959000Y-92334711D01*
X120182578Y-89111134D01*
X120206501Y-89091501D01*
X120284853Y-88996028D01*
X120343075Y-88887103D01*
X120378927Y-88768913D01*
X120388000Y-88676794D01*
X120388000Y-88676793D01*
X120391033Y-88646001D01*
X120388000Y-88615209D01*
X120388000Y-77627794D01*
X120391033Y-77597000D01*
X120378927Y-77474087D01*
X120360173Y-77412262D01*
X120343075Y-77355897D01*
X120284853Y-77246972D01*
X120206501Y-77151499D01*
X120182579Y-77131867D01*
X119337138Y-76286427D01*
X119317501Y-76262499D01*
X119222028Y-76184147D01*
X119113103Y-76125925D01*
X118994913Y-76090073D01*
X118902794Y-76081000D01*
X118872000Y-76077967D01*
X118841206Y-76081000D01*
X114461553Y-76081000D01*
X114446181Y-76065628D01*
X114310731Y-75975123D01*
X114160227Y-75912782D01*
X114000452Y-75881000D01*
X113837548Y-75881000D01*
X113677773Y-75912782D01*
X113527269Y-75975123D01*
X113391819Y-76065628D01*
X113276628Y-76180819D01*
X113186123Y-76316269D01*
X113123782Y-76466773D01*
X113092000Y-76626548D01*
X113092000Y-76789452D01*
X113123782Y-76949227D01*
X113186123Y-77099731D01*
X113276628Y-77235181D01*
X113391819Y-77350372D01*
X113527269Y-77440877D01*
X113677773Y-77503218D01*
X113837548Y-77535000D01*
X114000452Y-77535000D01*
X114160227Y-77503218D01*
X114310731Y-77440877D01*
X114446181Y-77350372D01*
X114461553Y-77335000D01*
X118612289Y-77335000D01*
X119134000Y-77856712D01*
X119134000Y-80853354D01*
X118309500Y-80028856D01*
X118292211Y-80007789D01*
X118208158Y-79938809D01*
X118112263Y-79887552D01*
X118008211Y-79855988D01*
X117927109Y-79848000D01*
X117927106Y-79848000D01*
X117900000Y-79845330D01*
X117872894Y-79848000D01*
X114317553Y-79848000D01*
X114227181Y-79757628D01*
X114091731Y-79667123D01*
X113941227Y-79604782D01*
X113781452Y-79573000D01*
X113618548Y-79573000D01*
X113458773Y-79604782D01*
X113443007Y-79611313D01*
X113508877Y-79512731D01*
X113571218Y-79362227D01*
X113603000Y-79202452D01*
X113603000Y-79039548D01*
X113571218Y-78879773D01*
X113508877Y-78729269D01*
X113418372Y-78593819D01*
X113303181Y-78478628D01*
X113167731Y-78388123D01*
X113017227Y-78325782D01*
X112857452Y-78294000D01*
X112694548Y-78294000D01*
X112534773Y-78325782D01*
X112384269Y-78388123D01*
X112248819Y-78478628D01*
X112158447Y-78569000D01*
X111742553Y-78569000D01*
X111652181Y-78478628D01*
X111516731Y-78388123D01*
X111366227Y-78325782D01*
X111206452Y-78294000D01*
X111043548Y-78294000D01*
X110883773Y-78325782D01*
X110733269Y-78388123D01*
X110597819Y-78478628D01*
X110482628Y-78593819D01*
X110392123Y-78729269D01*
X110329782Y-78879773D01*
X110298000Y-79039548D01*
X110298000Y-79202452D01*
X110329782Y-79362227D01*
X110392123Y-79512731D01*
X110482628Y-79648181D01*
X110597819Y-79763372D01*
X110724473Y-79848000D01*
X108625623Y-79848000D01*
X108614070Y-79789921D01*
X108551729Y-79639417D01*
X108461224Y-79503967D01*
X108346033Y-79388776D01*
X108210583Y-79298271D01*
X108060079Y-79235930D01*
X107900304Y-79204148D01*
X107758049Y-79204148D01*
X107037145Y-78506499D01*
X106009711Y-77479066D01*
X106150000Y-77479066D01*
X106233266Y-77470909D01*
X106300050Y-77450727D01*
X106366293Y-77470822D01*
X106450000Y-77479066D01*
X107450000Y-77479066D01*
X107533707Y-77470822D01*
X107614196Y-77446405D01*
X107688376Y-77406755D01*
X107753395Y-77353395D01*
X107806755Y-77288376D01*
X107846405Y-77214196D01*
X107870822Y-77133707D01*
X107879066Y-77050000D01*
X107879066Y-76880548D01*
X109155000Y-76880548D01*
X109155000Y-77043452D01*
X109186782Y-77203227D01*
X109249123Y-77353731D01*
X109339628Y-77489181D01*
X109454819Y-77604372D01*
X109590269Y-77694877D01*
X109740773Y-77757218D01*
X109900548Y-77789000D01*
X110063452Y-77789000D01*
X110223227Y-77757218D01*
X110373731Y-77694877D01*
X110509181Y-77604372D01*
X110608553Y-77505000D01*
X111278447Y-77505000D01*
X111368819Y-77595372D01*
X111504269Y-77685877D01*
X111654773Y-77748218D01*
X111814548Y-77780000D01*
X111977452Y-77780000D01*
X112137227Y-77748218D01*
X112287731Y-77685877D01*
X112423181Y-77595372D01*
X112538372Y-77480181D01*
X112628877Y-77344731D01*
X112691218Y-77194227D01*
X112723000Y-77034452D01*
X112723000Y-76871548D01*
X112691218Y-76711773D01*
X112628877Y-76561269D01*
X112538372Y-76425819D01*
X112423181Y-76310628D01*
X112287731Y-76220123D01*
X112137227Y-76157782D01*
X111977452Y-76126000D01*
X111814548Y-76126000D01*
X111654773Y-76157782D01*
X111504269Y-76220123D01*
X111368819Y-76310628D01*
X111278447Y-76401000D01*
X110590553Y-76401000D01*
X110509181Y-76319628D01*
X110373731Y-76229123D01*
X110223227Y-76166782D01*
X110063452Y-76135000D01*
X109900548Y-76135000D01*
X109740773Y-76166782D01*
X109590269Y-76229123D01*
X109454819Y-76319628D01*
X109339628Y-76434819D01*
X109249123Y-76570269D01*
X109186782Y-76720773D01*
X109155000Y-76880548D01*
X107879066Y-76880548D01*
X107879066Y-76151578D01*
X109906301Y-74124344D01*
X109927363Y-74107059D01*
X109996343Y-74023006D01*
X110047600Y-73927111D01*
X110079164Y-73823059D01*
X110087152Y-73741957D01*
X110087152Y-73741955D01*
X110089822Y-73714849D01*
X110087152Y-73687743D01*
X110087152Y-71799000D01*
X113301447Y-71799000D01*
X113391819Y-71889372D01*
X113527269Y-71979877D01*
X113677773Y-72042218D01*
X113795210Y-72065578D01*
X113784000Y-72121934D01*
X113784000Y-72270066D01*
X113812899Y-72415350D01*
X113869586Y-72552206D01*
X113951883Y-72675372D01*
X114056628Y-72780117D01*
X114179794Y-72862414D01*
X114316650Y-72919101D01*
X114461934Y-72948000D01*
X114610066Y-72948000D01*
X114755350Y-72919101D01*
X114892206Y-72862414D01*
X115015372Y-72780117D01*
X115039000Y-72756489D01*
X115039000Y-73321537D01*
X115052413Y-73457723D01*
X115105420Y-73632463D01*
X115191499Y-73793504D01*
X115307341Y-73934659D01*
X115448495Y-74050501D01*
X115609536Y-74136580D01*
X115784276Y-74189587D01*
X115966000Y-74207485D01*
X116147723Y-74189587D01*
X116322463Y-74136580D01*
X116483504Y-74050501D01*
X116624659Y-73934659D01*
X116740501Y-73793505D01*
X116826580Y-73632464D01*
X116879587Y-73457724D01*
X116893000Y-73321538D01*
X116893000Y-72130462D01*
X116879587Y-71994276D01*
X116826580Y-71819536D01*
X116740501Y-71658495D01*
X116624659Y-71517341D01*
X116483505Y-71401499D01*
X116322464Y-71315420D01*
X116147724Y-71262413D01*
X115966000Y-71244515D01*
X115784277Y-71262413D01*
X115609537Y-71315420D01*
X115448496Y-71401499D01*
X115307342Y-71517341D01*
X115191500Y-71658495D01*
X115142512Y-71750144D01*
X115120117Y-71716628D01*
X115015372Y-71611883D01*
X114892206Y-71529586D01*
X114755350Y-71472899D01*
X114718716Y-71465612D01*
X114746000Y-71328452D01*
X114746000Y-71165548D01*
X114714218Y-71005773D01*
X114651877Y-70855269D01*
X114561372Y-70719819D01*
X114446181Y-70604628D01*
X114310731Y-70514123D01*
X114160227Y-70451782D01*
X114000452Y-70420000D01*
X113837548Y-70420000D01*
X113677773Y-70451782D01*
X113527269Y-70514123D01*
X113391819Y-70604628D01*
X113301447Y-70695000D01*
X109644523Y-70695000D01*
X109526884Y-70616396D01*
X109376380Y-70554055D01*
X109216605Y-70522273D01*
X109053701Y-70522273D01*
X108893926Y-70554055D01*
X108743422Y-70616396D01*
X108607972Y-70706901D01*
X108492781Y-70822092D01*
X108402276Y-70957542D01*
X108339935Y-71108046D01*
X108308153Y-71267821D01*
X108308153Y-71430725D01*
X108336262Y-71572037D01*
X108276628Y-71611883D01*
X108171883Y-71716628D01*
X108149489Y-71750144D01*
X108100501Y-71658495D01*
X107984659Y-71517341D01*
X107843505Y-71401499D01*
X107682464Y-71315420D01*
X107507724Y-71262413D01*
X107326000Y-71244515D01*
X107144277Y-71262413D01*
X106969537Y-71315420D01*
X106808496Y-71401499D01*
X106667342Y-71517341D01*
X106551500Y-71658495D01*
X106465421Y-71819536D01*
X106412414Y-71994276D01*
X106399001Y-72130462D01*
X106399000Y-73321537D01*
X106412413Y-73457723D01*
X106465420Y-73632463D01*
X106551499Y-73793504D01*
X106667341Y-73934659D01*
X106808495Y-74050501D01*
X106969536Y-74136580D01*
X107144276Y-74189587D01*
X107326000Y-74207485D01*
X107507723Y-74189587D01*
X107682463Y-74136580D01*
X107843504Y-74050501D01*
X107984659Y-73934659D01*
X108100501Y-73793505D01*
X108186580Y-73632464D01*
X108239587Y-73457724D01*
X108253000Y-73321538D01*
X108253000Y-72756489D01*
X108276628Y-72780117D01*
X108399794Y-72862414D01*
X108536650Y-72919101D01*
X108681934Y-72948000D01*
X108830066Y-72948000D01*
X108975350Y-72919101D01*
X108983152Y-72915869D01*
X108983152Y-73486203D01*
X107348422Y-75120934D01*
X106450000Y-75120934D01*
X106365853Y-75129266D01*
X106300048Y-75149303D01*
X106233707Y-75129178D01*
X106150000Y-75120934D01*
X103750000Y-75120934D01*
X103666734Y-75129091D01*
X103599950Y-75149273D01*
X103533707Y-75129178D01*
X103450000Y-75120934D01*
X102450000Y-75120934D01*
X102366293Y-75129178D01*
X102285804Y-75153595D01*
X102211624Y-75193245D01*
X102146605Y-75246605D01*
X102093245Y-75311624D01*
X102053595Y-75385804D01*
X102029178Y-75466293D01*
X102020934Y-75550000D01*
X102020934Y-76448421D01*
X101578856Y-76890500D01*
X101557789Y-76907789D01*
X101488809Y-76991842D01*
X101437552Y-77087738D01*
X101417000Y-77155488D01*
X101417000Y-68200462D01*
X106399000Y-68200462D01*
X106399000Y-68891537D01*
X106412413Y-69027723D01*
X106465420Y-69202463D01*
X106551499Y-69363504D01*
X106667341Y-69504659D01*
X106808495Y-69620501D01*
X106969536Y-69706580D01*
X107144276Y-69759587D01*
X107326000Y-69777485D01*
X107507723Y-69759587D01*
X107682463Y-69706580D01*
X107843504Y-69620501D01*
X107984659Y-69504659D01*
X108100501Y-69363505D01*
X108186580Y-69202464D01*
X108239587Y-69027724D01*
X108253000Y-68891538D01*
X108253000Y-68200462D01*
X115039000Y-68200462D01*
X115039000Y-68891537D01*
X115052413Y-69027723D01*
X115105420Y-69202463D01*
X115191499Y-69363504D01*
X115307341Y-69504659D01*
X115448495Y-69620501D01*
X115609536Y-69706580D01*
X115784276Y-69759587D01*
X115966000Y-69777485D01*
X116147723Y-69759587D01*
X116322463Y-69706580D01*
X116483504Y-69620501D01*
X116624659Y-69504659D01*
X116740501Y-69363505D01*
X116826580Y-69202464D01*
X116879587Y-69027724D01*
X116893000Y-68891538D01*
X116893000Y-68200462D01*
X116879587Y-68064276D01*
X116826580Y-67889536D01*
X116740501Y-67728495D01*
X116624659Y-67587341D01*
X116483505Y-67471499D01*
X116322464Y-67385420D01*
X116147724Y-67332413D01*
X115966000Y-67314515D01*
X115784277Y-67332413D01*
X115609537Y-67385420D01*
X115448496Y-67471499D01*
X115307342Y-67587341D01*
X115191500Y-67728495D01*
X115105421Y-67889536D01*
X115052413Y-68064276D01*
X115039000Y-68200462D01*
X108253000Y-68200462D01*
X108239587Y-68064276D01*
X108186580Y-67889536D01*
X108100501Y-67728495D01*
X107984659Y-67587341D01*
X107843505Y-67471499D01*
X107682464Y-67385420D01*
X107507724Y-67332413D01*
X107326000Y-67314515D01*
X107144277Y-67332413D01*
X106969537Y-67385420D01*
X106808496Y-67471499D01*
X106667342Y-67587341D01*
X106551500Y-67728495D01*
X106465421Y-67889536D01*
X106412413Y-68064276D01*
X106399000Y-68200462D01*
X101417000Y-68200462D01*
X101417000Y-67459108D01*
X101449217Y-67130532D01*
X101538222Y-66835731D01*
X101682790Y-66563840D01*
X101877417Y-66325204D01*
X102114684Y-66128920D01*
X102385566Y-65982454D01*
X102679733Y-65891394D01*
X103006978Y-65857000D01*
X119738892Y-65857000D01*
X120067468Y-65889217D01*
G37*
X120067468Y-65889217D02*
X120362269Y-65978222D01*
X120634160Y-66122790D01*
X120872796Y-66317417D01*
X121069080Y-66554684D01*
X121215546Y-66825566D01*
X121306606Y-67119733D01*
X121341000Y-67446978D01*
X121341001Y-96370881D01*
X121308783Y-96699468D01*
X121219778Y-96994269D01*
X121075211Y-97266158D01*
X120880585Y-97504793D01*
X120643315Y-97701080D01*
X120372433Y-97847546D01*
X120078267Y-97938606D01*
X119751022Y-97973000D01*
X103019109Y-97973000D01*
X102690532Y-97940783D01*
X102395731Y-97851778D01*
X102123842Y-97707211D01*
X101885207Y-97512585D01*
X101688920Y-97275315D01*
X101542454Y-97004433D01*
X101451394Y-96710267D01*
X101417000Y-96383022D01*
X101417000Y-90144509D01*
X101437552Y-90212262D01*
X101488809Y-90308157D01*
X101488810Y-90308158D01*
X101557790Y-90392211D01*
X101578852Y-90409496D01*
X102490504Y-91321149D01*
X102507789Y-91342211D01*
X102591842Y-91411191D01*
X102615955Y-91424080D01*
X102500337Y-91597114D01*
X102404074Y-91829513D01*
X102355000Y-92076226D01*
X102355000Y-92327774D01*
X102404074Y-92574487D01*
X102500337Y-92806886D01*
X102640089Y-93016040D01*
X102817960Y-93193911D01*
X103027114Y-93333663D01*
X103259513Y-93429926D01*
X103471034Y-93472000D01*
X103259513Y-93514074D01*
X103027114Y-93610337D01*
X102817960Y-93750089D01*
X102640089Y-93927960D01*
X102500337Y-94137114D01*
X102404074Y-94369513D01*
X102355000Y-94616226D01*
X102355000Y-94867774D01*
X102404074Y-95114487D01*
X102500337Y-95346886D01*
X102640089Y-95556040D01*
X102817960Y-95733911D01*
X103027114Y-95873663D01*
X103259513Y-95969926D01*
X103506226Y-96019000D01*
X103757774Y-96019000D01*
X104004487Y-95969926D01*
X104236886Y-95873663D01*
X104446040Y-95733911D01*
X104623911Y-95556040D01*
X104763663Y-95346886D01*
X104859926Y-95114487D01*
X104909000Y-94867774D01*
X104909000Y-94616226D01*
X104859926Y-94369513D01*
X104763663Y-94137114D01*
X104623911Y-93927960D01*
X104446040Y-93750089D01*
X104236886Y-93610337D01*
X104004487Y-93514074D01*
X103792966Y-93472000D01*
X104004487Y-93429926D01*
X104236886Y-93333663D01*
X104446040Y-93193911D01*
X104623911Y-93016040D01*
X104763663Y-92806886D01*
X104859926Y-92574487D01*
X104909000Y-92327774D01*
X104909000Y-92076226D01*
X104859926Y-91829513D01*
X104763663Y-91597114D01*
X104700110Y-91502000D01*
X108871356Y-91502000D01*
X110081500Y-92712146D01*
X110081500Y-92839952D01*
X110113282Y-92999727D01*
X110175623Y-93150231D01*
X110266128Y-93285681D01*
X110381319Y-93400872D01*
X110516769Y-93491377D01*
X110667273Y-93553718D01*
X110827048Y-93585500D01*
X110989952Y-93585500D01*
X111149727Y-93553718D01*
X111300231Y-93491377D01*
X111435681Y-93400872D01*
X111550872Y-93285681D01*
X111641377Y-93150231D01*
X111703718Y-92999727D01*
X111735500Y-92839952D01*
X111735500Y-92677048D01*
X111703718Y-92517273D01*
X111641377Y-92366769D01*
X111550872Y-92231319D01*
X111435681Y-92116128D01*
X111300231Y-92025623D01*
X111149727Y-91963282D01*
X110989952Y-91931500D01*
X110862146Y-91931500D01*
X109509500Y-90578856D01*
X109492211Y-90557789D01*
X109408158Y-90488809D01*
X109312263Y-90437552D01*
X109208211Y-90405988D01*
X109127109Y-90398000D01*
X109127106Y-90398000D01*
X109100000Y-90395330D01*
X109072894Y-90398000D01*
X104676056Y-90398000D01*
X104763663Y-90266886D01*
X104785569Y-90214000D01*
X108176894Y-90214000D01*
X108204000Y-90216670D01*
X108231106Y-90214000D01*
X108231109Y-90214000D01*
X108312211Y-90206012D01*
X108416263Y-90174448D01*
X108512158Y-90123191D01*
X108596211Y-90054211D01*
X108613501Y-90033143D01*
X113491646Y-85155000D01*
X113619452Y-85155000D01*
X113779227Y-85123218D01*
X113929731Y-85060877D01*
X114065181Y-84970372D01*
X114180372Y-84855181D01*
X114270877Y-84719731D01*
X114333218Y-84569227D01*
X114365000Y-84409452D01*
X114365000Y-84246548D01*
X114333218Y-84086773D01*
X114270877Y-83936269D01*
X114180372Y-83800819D01*
X114065181Y-83685628D01*
X113929731Y-83595123D01*
X113779227Y-83532782D01*
X113619452Y-83501000D01*
X113456548Y-83501000D01*
X113296773Y-83532782D01*
X113146269Y-83595123D01*
X113010819Y-83685628D01*
X112895628Y-83800819D01*
X112805123Y-83936269D01*
X112742782Y-84086773D01*
X112711000Y-84246548D01*
X112711000Y-84374354D01*
X107975356Y-89110000D01*
X104785569Y-89110000D01*
X104763663Y-89057114D01*
X104623911Y-88847960D01*
X104446040Y-88670089D01*
X104236886Y-88530337D01*
X104004487Y-88434074D01*
X103792966Y-88392000D01*
X104004487Y-88349926D01*
X104236886Y-88253663D01*
X104446040Y-88113911D01*
X104623911Y-87936040D01*
X104763663Y-87726886D01*
X104859926Y-87494487D01*
X104909000Y-87247774D01*
X104909000Y-86996226D01*
X104859926Y-86749513D01*
X104763663Y-86517114D01*
X104623911Y-86307960D01*
X104446040Y-86130089D01*
X104236886Y-85990337D01*
X104004487Y-85894074D01*
X103792966Y-85852000D01*
X104004487Y-85809926D01*
X104236886Y-85713663D01*
X104446040Y-85573911D01*
X104623911Y-85396040D01*
X104763663Y-85186886D01*
X104859926Y-84954487D01*
X104909000Y-84707774D01*
X104909000Y-84456226D01*
X104859926Y-84209513D01*
X104763663Y-83977114D01*
X104717740Y-83908385D01*
X105939001Y-85129647D01*
X105939000Y-86693447D01*
X105848628Y-86783819D01*
X105758123Y-86919269D01*
X105695782Y-87069773D01*
X105664000Y-87229548D01*
X105664000Y-87392452D01*
X105695782Y-87552227D01*
X105758123Y-87702731D01*
X105848628Y-87838181D01*
X105963819Y-87953372D01*
X106099269Y-88043877D01*
X106249773Y-88106218D01*
X106409548Y-88138000D01*
X106572452Y-88138000D01*
X106732227Y-88106218D01*
X106882731Y-88043877D01*
X107018181Y-87953372D01*
X107133372Y-87838181D01*
X107223877Y-87702731D01*
X107286218Y-87552227D01*
X107318000Y-87392452D01*
X107318000Y-87229548D01*
X107286218Y-87069773D01*
X107223877Y-86919269D01*
X107133372Y-86783819D01*
X107043000Y-86693447D01*
X107043000Y-84928108D01*
X107045670Y-84901000D01*
X107041456Y-84858210D01*
X107035012Y-84792789D01*
X107003448Y-84688737D01*
X106952191Y-84592842D01*
X106883211Y-84508789D01*
X106862154Y-84491508D01*
X104838019Y-82467375D01*
X104859926Y-82414487D01*
X104909000Y-82167774D01*
X104909000Y-81916226D01*
X104859926Y-81669513D01*
X104763663Y-81437114D01*
X104623911Y-81227960D01*
X104446040Y-81050089D01*
X104355185Y-80989382D01*
X104482000Y-80990072D01*
X104606482Y-80977812D01*
X104726180Y-80941502D01*
X104836494Y-80882537D01*
X104933185Y-80803185D01*
X105012537Y-80706494D01*
X105071502Y-80596180D01*
X105107812Y-80476482D01*
X105120072Y-80352000D01*
X105117000Y-79787750D01*
X104958250Y-79629000D01*
X103759000Y-79629000D01*
X103759000Y-79649000D01*
X103505000Y-79649000D01*
X103505000Y-79629000D01*
X103485000Y-79629000D01*
X103485000Y-79375000D01*
X103505000Y-79375000D01*
X103505000Y-78175750D01*
X103759000Y-78175750D01*
X103759000Y-79375000D01*
X104958250Y-79375000D01*
X105117000Y-79216250D01*
X105120072Y-78652000D01*
X105107812Y-78527518D01*
X105071502Y-78407820D01*
X105012537Y-78297506D01*
X104933185Y-78200815D01*
X104836494Y-78121463D01*
X104726180Y-78062498D01*
X104606482Y-78026188D01*
X104482000Y-78013928D01*
X103917750Y-78017000D01*
X103759000Y-78175750D01*
X103505000Y-78175750D01*
X103346250Y-78017000D01*
X102782000Y-78013928D01*
X102657518Y-78026188D01*
X102537820Y-78062498D01*
X102502000Y-78081644D01*
X102502000Y-77528644D01*
X102551578Y-77479066D01*
X103450000Y-77479066D01*
X103534147Y-77470734D01*
X103599952Y-77450697D01*
X103666293Y-77470822D01*
X103750000Y-77479066D01*
X104473260Y-77479066D01*
X104487122Y-77505000D01*
X104488810Y-77508158D01*
X104557790Y-77592211D01*
X104578852Y-77609496D01*
X106243718Y-79274364D01*
X106246647Y-79277816D01*
X106262861Y-79293507D01*
X106278845Y-79309491D01*
X106282351Y-79312368D01*
X106991852Y-79998982D01*
X106991852Y-80112600D01*
X107023634Y-80272375D01*
X107085975Y-80422879D01*
X107176480Y-80558329D01*
X107291671Y-80673520D01*
X107427121Y-80764025D01*
X107577625Y-80826366D01*
X107737400Y-80858148D01*
X107888134Y-80858148D01*
X107891842Y-80861191D01*
X107895865Y-80863342D01*
X107899442Y-80866180D01*
X107943792Y-80888959D01*
X107987737Y-80912448D01*
X107992104Y-80913773D01*
X107996164Y-80915858D01*
X108044078Y-80929539D01*
X108091789Y-80944012D01*
X108096334Y-80944460D01*
X108100720Y-80945712D01*
X108150364Y-80949781D01*
X108172891Y-80952000D01*
X108177432Y-80952000D01*
X108209091Y-80954595D01*
X108231641Y-80952000D01*
X113082447Y-80952000D01*
X113172819Y-81042372D01*
X113308269Y-81132877D01*
X113458773Y-81195218D01*
X113618548Y-81227000D01*
X113781452Y-81227000D01*
X113941227Y-81195218D01*
X114091731Y-81132877D01*
X114227181Y-81042372D01*
X114317553Y-80952000D01*
X117671356Y-80952000D01*
X118248000Y-81528646D01*
X118248001Y-83321353D01*
X117593091Y-83976265D01*
X117541227Y-83954782D01*
X117381452Y-83923000D01*
X117218548Y-83923000D01*
X117058773Y-83954782D01*
X116908269Y-84017123D01*
X116772819Y-84107628D01*
X116657628Y-84222819D01*
X116567123Y-84358269D01*
X116504782Y-84508773D01*
X116473000Y-84668548D01*
X116473000Y-84831452D01*
X116504782Y-84991227D01*
X116567123Y-85141731D01*
X116657628Y-85277181D01*
X116772819Y-85392372D01*
X116908269Y-85482877D01*
X117058773Y-85545218D01*
X117218548Y-85577000D01*
X117381452Y-85577000D01*
X117541227Y-85545218D01*
X117691731Y-85482877D01*
X117827181Y-85392372D01*
X117942372Y-85277181D01*
X118032877Y-85141731D01*
X118063964Y-85066680D01*
X119134001Y-83996645D01*
X119134001Y-88386287D01*
X115910427Y-91609862D01*
X115886499Y-91629499D01*
X115808147Y-91724973D01*
X115749925Y-91833898D01*
X115720318Y-91931500D01*
X115714073Y-91952088D01*
X115701967Y-92075000D01*
X115705000Y-92105794D01*
X115705001Y-94961446D01*
X115689628Y-94976819D01*
X115599123Y-95112269D01*
X115536782Y-95262773D01*
X115505000Y-95422548D01*
X115505000Y-95585452D01*
X115536782Y-95745227D01*
X115599123Y-95895731D01*
X115689628Y-96031181D01*
X115804819Y-96146372D01*
X115940269Y-96236877D01*
X116090773Y-96299218D01*
X116250548Y-96331000D01*
X116413452Y-96331000D01*
X116573227Y-96299218D01*
X116723731Y-96236877D01*
X116859181Y-96146372D01*
X116974372Y-96031181D01*
X117064877Y-95895731D01*
X117127218Y-95745227D01*
X117159000Y-95585452D01*
X117159000Y-95422548D01*
X117127218Y-95262773D01*
X117064877Y-95112269D01*
X116974372Y-94976819D01*
X116959000Y-94961447D01*
X116959000Y-92334711D01*
X120182578Y-89111134D01*
X120206501Y-89091501D01*
X120284853Y-88996028D01*
X120343075Y-88887103D01*
X120378927Y-88768913D01*
X120388000Y-88676794D01*
X120388000Y-88676793D01*
X120391033Y-88646001D01*
X120388000Y-88615209D01*
X120388000Y-77627794D01*
X120391033Y-77597000D01*
X120378927Y-77474087D01*
X120360173Y-77412262D01*
X120343075Y-77355897D01*
X120284853Y-77246972D01*
X120206501Y-77151499D01*
X120182579Y-77131867D01*
X119337138Y-76286427D01*
X119317501Y-76262499D01*
X119222028Y-76184147D01*
X119113103Y-76125925D01*
X118994913Y-76090073D01*
X118902794Y-76081000D01*
X118872000Y-76077967D01*
X118841206Y-76081000D01*
X114461553Y-76081000D01*
X114446181Y-76065628D01*
X114310731Y-75975123D01*
X114160227Y-75912782D01*
X114000452Y-75881000D01*
X113837548Y-75881000D01*
X113677773Y-75912782D01*
X113527269Y-75975123D01*
X113391819Y-76065628D01*
X113276628Y-76180819D01*
X113186123Y-76316269D01*
X113123782Y-76466773D01*
X113092000Y-76626548D01*
X113092000Y-76789452D01*
X113123782Y-76949227D01*
X113186123Y-77099731D01*
X113276628Y-77235181D01*
X113391819Y-77350372D01*
X113527269Y-77440877D01*
X113677773Y-77503218D01*
X113837548Y-77535000D01*
X114000452Y-77535000D01*
X114160227Y-77503218D01*
X114310731Y-77440877D01*
X114446181Y-77350372D01*
X114461553Y-77335000D01*
X118612289Y-77335000D01*
X119134000Y-77856712D01*
X119134000Y-80853354D01*
X118309500Y-80028856D01*
X118292211Y-80007789D01*
X118208158Y-79938809D01*
X118112263Y-79887552D01*
X118008211Y-79855988D01*
X117927109Y-79848000D01*
X117927106Y-79848000D01*
X117900000Y-79845330D01*
X117872894Y-79848000D01*
X114317553Y-79848000D01*
X114227181Y-79757628D01*
X114091731Y-79667123D01*
X113941227Y-79604782D01*
X113781452Y-79573000D01*
X113618548Y-79573000D01*
X113458773Y-79604782D01*
X113443007Y-79611313D01*
X113508877Y-79512731D01*
X113571218Y-79362227D01*
X113603000Y-79202452D01*
X113603000Y-79039548D01*
X113571218Y-78879773D01*
X113508877Y-78729269D01*
X113418372Y-78593819D01*
X113303181Y-78478628D01*
X113167731Y-78388123D01*
X113017227Y-78325782D01*
X112857452Y-78294000D01*
X112694548Y-78294000D01*
X112534773Y-78325782D01*
X112384269Y-78388123D01*
X112248819Y-78478628D01*
X112158447Y-78569000D01*
X111742553Y-78569000D01*
X111652181Y-78478628D01*
X111516731Y-78388123D01*
X111366227Y-78325782D01*
X111206452Y-78294000D01*
X111043548Y-78294000D01*
X110883773Y-78325782D01*
X110733269Y-78388123D01*
X110597819Y-78478628D01*
X110482628Y-78593819D01*
X110392123Y-78729269D01*
X110329782Y-78879773D01*
X110298000Y-79039548D01*
X110298000Y-79202452D01*
X110329782Y-79362227D01*
X110392123Y-79512731D01*
X110482628Y-79648181D01*
X110597819Y-79763372D01*
X110724473Y-79848000D01*
X108625623Y-79848000D01*
X108614070Y-79789921D01*
X108551729Y-79639417D01*
X108461224Y-79503967D01*
X108346033Y-79388776D01*
X108210583Y-79298271D01*
X108060079Y-79235930D01*
X107900304Y-79204148D01*
X107758049Y-79204148D01*
X107037145Y-78506499D01*
X106009711Y-77479066D01*
X106150000Y-77479066D01*
X106233266Y-77470909D01*
X106300050Y-77450727D01*
X106366293Y-77470822D01*
X106450000Y-77479066D01*
X107450000Y-77479066D01*
X107533707Y-77470822D01*
X107614196Y-77446405D01*
X107688376Y-77406755D01*
X107753395Y-77353395D01*
X107806755Y-77288376D01*
X107846405Y-77214196D01*
X107870822Y-77133707D01*
X107879066Y-77050000D01*
X107879066Y-76880548D01*
X109155000Y-76880548D01*
X109155000Y-77043452D01*
X109186782Y-77203227D01*
X109249123Y-77353731D01*
X109339628Y-77489181D01*
X109454819Y-77604372D01*
X109590269Y-77694877D01*
X109740773Y-77757218D01*
X109900548Y-77789000D01*
X110063452Y-77789000D01*
X110223227Y-77757218D01*
X110373731Y-77694877D01*
X110509181Y-77604372D01*
X110608553Y-77505000D01*
X111278447Y-77505000D01*
X111368819Y-77595372D01*
X111504269Y-77685877D01*
X111654773Y-77748218D01*
X111814548Y-77780000D01*
X111977452Y-77780000D01*
X112137227Y-77748218D01*
X112287731Y-77685877D01*
X112423181Y-77595372D01*
X112538372Y-77480181D01*
X112628877Y-77344731D01*
X112691218Y-77194227D01*
X112723000Y-77034452D01*
X112723000Y-76871548D01*
X112691218Y-76711773D01*
X112628877Y-76561269D01*
X112538372Y-76425819D01*
X112423181Y-76310628D01*
X112287731Y-76220123D01*
X112137227Y-76157782D01*
X111977452Y-76126000D01*
X111814548Y-76126000D01*
X111654773Y-76157782D01*
X111504269Y-76220123D01*
X111368819Y-76310628D01*
X111278447Y-76401000D01*
X110590553Y-76401000D01*
X110509181Y-76319628D01*
X110373731Y-76229123D01*
X110223227Y-76166782D01*
X110063452Y-76135000D01*
X109900548Y-76135000D01*
X109740773Y-76166782D01*
X109590269Y-76229123D01*
X109454819Y-76319628D01*
X109339628Y-76434819D01*
X109249123Y-76570269D01*
X109186782Y-76720773D01*
X109155000Y-76880548D01*
X107879066Y-76880548D01*
X107879066Y-76151578D01*
X109906301Y-74124344D01*
X109927363Y-74107059D01*
X109996343Y-74023006D01*
X110047600Y-73927111D01*
X110079164Y-73823059D01*
X110087152Y-73741957D01*
X110087152Y-73741955D01*
X110089822Y-73714849D01*
X110087152Y-73687743D01*
X110087152Y-71799000D01*
X113301447Y-71799000D01*
X113391819Y-71889372D01*
X113527269Y-71979877D01*
X113677773Y-72042218D01*
X113795210Y-72065578D01*
X113784000Y-72121934D01*
X113784000Y-72270066D01*
X113812899Y-72415350D01*
X113869586Y-72552206D01*
X113951883Y-72675372D01*
X114056628Y-72780117D01*
X114179794Y-72862414D01*
X114316650Y-72919101D01*
X114461934Y-72948000D01*
X114610066Y-72948000D01*
X114755350Y-72919101D01*
X114892206Y-72862414D01*
X115015372Y-72780117D01*
X115039000Y-72756489D01*
X115039000Y-73321537D01*
X115052413Y-73457723D01*
X115105420Y-73632463D01*
X115191499Y-73793504D01*
X115307341Y-73934659D01*
X115448495Y-74050501D01*
X115609536Y-74136580D01*
X115784276Y-74189587D01*
X115966000Y-74207485D01*
X116147723Y-74189587D01*
X116322463Y-74136580D01*
X116483504Y-74050501D01*
X116624659Y-73934659D01*
X116740501Y-73793505D01*
X116826580Y-73632464D01*
X116879587Y-73457724D01*
X116893000Y-73321538D01*
X116893000Y-72130462D01*
X116879587Y-71994276D01*
X116826580Y-71819536D01*
X116740501Y-71658495D01*
X116624659Y-71517341D01*
X116483505Y-71401499D01*
X116322464Y-71315420D01*
X116147724Y-71262413D01*
X115966000Y-71244515D01*
X115784277Y-71262413D01*
X115609537Y-71315420D01*
X115448496Y-71401499D01*
X115307342Y-71517341D01*
X115191500Y-71658495D01*
X115142512Y-71750144D01*
X115120117Y-71716628D01*
X115015372Y-71611883D01*
X114892206Y-71529586D01*
X114755350Y-71472899D01*
X114718716Y-71465612D01*
X114746000Y-71328452D01*
X114746000Y-71165548D01*
X114714218Y-71005773D01*
X114651877Y-70855269D01*
X114561372Y-70719819D01*
X114446181Y-70604628D01*
X114310731Y-70514123D01*
X114160227Y-70451782D01*
X114000452Y-70420000D01*
X113837548Y-70420000D01*
X113677773Y-70451782D01*
X113527269Y-70514123D01*
X113391819Y-70604628D01*
X113301447Y-70695000D01*
X109644523Y-70695000D01*
X109526884Y-70616396D01*
X109376380Y-70554055D01*
X109216605Y-70522273D01*
X109053701Y-70522273D01*
X108893926Y-70554055D01*
X108743422Y-70616396D01*
X108607972Y-70706901D01*
X108492781Y-70822092D01*
X108402276Y-70957542D01*
X108339935Y-71108046D01*
X108308153Y-71267821D01*
X108308153Y-71430725D01*
X108336262Y-71572037D01*
X108276628Y-71611883D01*
X108171883Y-71716628D01*
X108149489Y-71750144D01*
X108100501Y-71658495D01*
X107984659Y-71517341D01*
X107843505Y-71401499D01*
X107682464Y-71315420D01*
X107507724Y-71262413D01*
X107326000Y-71244515D01*
X107144277Y-71262413D01*
X106969537Y-71315420D01*
X106808496Y-71401499D01*
X106667342Y-71517341D01*
X106551500Y-71658495D01*
X106465421Y-71819536D01*
X106412414Y-71994276D01*
X106399001Y-72130462D01*
X106399000Y-73321537D01*
X106412413Y-73457723D01*
X106465420Y-73632463D01*
X106551499Y-73793504D01*
X106667341Y-73934659D01*
X106808495Y-74050501D01*
X106969536Y-74136580D01*
X107144276Y-74189587D01*
X107326000Y-74207485D01*
X107507723Y-74189587D01*
X107682463Y-74136580D01*
X107843504Y-74050501D01*
X107984659Y-73934659D01*
X108100501Y-73793505D01*
X108186580Y-73632464D01*
X108239587Y-73457724D01*
X108253000Y-73321538D01*
X108253000Y-72756489D01*
X108276628Y-72780117D01*
X108399794Y-72862414D01*
X108536650Y-72919101D01*
X108681934Y-72948000D01*
X108830066Y-72948000D01*
X108975350Y-72919101D01*
X108983152Y-72915869D01*
X108983152Y-73486203D01*
X107348422Y-75120934D01*
X106450000Y-75120934D01*
X106365853Y-75129266D01*
X106300048Y-75149303D01*
X106233707Y-75129178D01*
X106150000Y-75120934D01*
X103750000Y-75120934D01*
X103666734Y-75129091D01*
X103599950Y-75149273D01*
X103533707Y-75129178D01*
X103450000Y-75120934D01*
X102450000Y-75120934D01*
X102366293Y-75129178D01*
X102285804Y-75153595D01*
X102211624Y-75193245D01*
X102146605Y-75246605D01*
X102093245Y-75311624D01*
X102053595Y-75385804D01*
X102029178Y-75466293D01*
X102020934Y-75550000D01*
X102020934Y-76448421D01*
X101578856Y-76890500D01*
X101557789Y-76907789D01*
X101488809Y-76991842D01*
X101437552Y-77087738D01*
X101417000Y-77155488D01*
X101417000Y-68200462D01*
X106399000Y-68200462D01*
X106399000Y-68891537D01*
X106412413Y-69027723D01*
X106465420Y-69202463D01*
X106551499Y-69363504D01*
X106667341Y-69504659D01*
X106808495Y-69620501D01*
X106969536Y-69706580D01*
X107144276Y-69759587D01*
X107326000Y-69777485D01*
X107507723Y-69759587D01*
X107682463Y-69706580D01*
X107843504Y-69620501D01*
X107984659Y-69504659D01*
X108100501Y-69363505D01*
X108186580Y-69202464D01*
X108239587Y-69027724D01*
X108253000Y-68891538D01*
X108253000Y-68200462D01*
X115039000Y-68200462D01*
X115039000Y-68891537D01*
X115052413Y-69027723D01*
X115105420Y-69202463D01*
X115191499Y-69363504D01*
X115307341Y-69504659D01*
X115448495Y-69620501D01*
X115609536Y-69706580D01*
X115784276Y-69759587D01*
X115966000Y-69777485D01*
X116147723Y-69759587D01*
X116322463Y-69706580D01*
X116483504Y-69620501D01*
X116624659Y-69504659D01*
X116740501Y-69363505D01*
X116826580Y-69202464D01*
X116879587Y-69027724D01*
X116893000Y-68891538D01*
X116893000Y-68200462D01*
X116879587Y-68064276D01*
X116826580Y-67889536D01*
X116740501Y-67728495D01*
X116624659Y-67587341D01*
X116483505Y-67471499D01*
X116322464Y-67385420D01*
X116147724Y-67332413D01*
X115966000Y-67314515D01*
X115784277Y-67332413D01*
X115609537Y-67385420D01*
X115448496Y-67471499D01*
X115307342Y-67587341D01*
X115191500Y-67728495D01*
X115105421Y-67889536D01*
X115052413Y-68064276D01*
X115039000Y-68200462D01*
X108253000Y-68200462D01*
X108239587Y-68064276D01*
X108186580Y-67889536D01*
X108100501Y-67728495D01*
X107984659Y-67587341D01*
X107843505Y-67471499D01*
X107682464Y-67385420D01*
X107507724Y-67332413D01*
X107326000Y-67314515D01*
X107144277Y-67332413D01*
X106969537Y-67385420D01*
X106808496Y-67471499D01*
X106667342Y-67587341D01*
X106551500Y-67728495D01*
X106465421Y-67889536D01*
X106412413Y-68064276D01*
X106399000Y-68200462D01*
X101417000Y-68200462D01*
X101417000Y-67459108D01*
X101449217Y-67130532D01*
X101538222Y-66835731D01*
X101682790Y-66563840D01*
X101877417Y-66325204D01*
X102114684Y-66128920D01*
X102385566Y-65982454D01*
X102679733Y-65891394D01*
X103006978Y-65857000D01*
X119738892Y-65857000D01*
X120067468Y-65889217D01*
M02*
