G04 #@! TF.GenerationSoftware,KiCad,Pcbnew,(5.1.5)-3*
G04 #@! TF.CreationDate,2020-06-01T09:33:33-04:00*
G04 #@! TF.ProjectId,OpenUSB2Serial,4f70656e-5553-4423-9253-657269616c2e,rev?*
G04 #@! TF.SameCoordinates,Original*
G04 #@! TF.FileFunction,Soldermask,Bot*
G04 #@! TF.FilePolarity,Negative*
%FSLAX46Y46*%
G04 Gerber Fmt 4.6, Leading zero omitted, Abs format (unit mm)*
G04 Created by KiCad (PCBNEW (5.1.5)-3) date 2020-06-01 09:33:33*
%MOMM*%
%LPD*%
G04 APERTURE LIST*
%ADD10C,0.100000*%
G04 APERTURE END LIST*
D10*
G36*
X103745512Y-93845927D02*
G01*
X103894812Y-93875624D01*
X104058784Y-93943544D01*
X104206354Y-94042147D01*
X104331853Y-94167646D01*
X104430456Y-94315216D01*
X104498376Y-94479188D01*
X104533000Y-94653259D01*
X104533000Y-94830741D01*
X104498376Y-95004812D01*
X104430456Y-95168784D01*
X104331853Y-95316354D01*
X104206354Y-95441853D01*
X104058784Y-95540456D01*
X103894812Y-95608376D01*
X103745512Y-95638073D01*
X103720742Y-95643000D01*
X103543258Y-95643000D01*
X103518488Y-95638073D01*
X103369188Y-95608376D01*
X103205216Y-95540456D01*
X103057646Y-95441853D01*
X102932147Y-95316354D01*
X102833544Y-95168784D01*
X102765624Y-95004812D01*
X102731000Y-94830741D01*
X102731000Y-94653259D01*
X102765624Y-94479188D01*
X102833544Y-94315216D01*
X102932147Y-94167646D01*
X103057646Y-94042147D01*
X103205216Y-93943544D01*
X103369188Y-93875624D01*
X103518488Y-93845927D01*
X103543258Y-93841000D01*
X103720742Y-93841000D01*
X103745512Y-93845927D01*
G37*
G36*
X103745512Y-91305927D02*
G01*
X103894812Y-91335624D01*
X104058784Y-91403544D01*
X104206354Y-91502147D01*
X104331853Y-91627646D01*
X104430456Y-91775216D01*
X104498376Y-91939188D01*
X104533000Y-92113259D01*
X104533000Y-92290741D01*
X104498376Y-92464812D01*
X104430456Y-92628784D01*
X104331853Y-92776354D01*
X104206354Y-92901853D01*
X104058784Y-93000456D01*
X103894812Y-93068376D01*
X103745512Y-93098073D01*
X103720742Y-93103000D01*
X103543258Y-93103000D01*
X103518488Y-93098073D01*
X103369188Y-93068376D01*
X103205216Y-93000456D01*
X103057646Y-92901853D01*
X102932147Y-92776354D01*
X102833544Y-92628784D01*
X102765624Y-92464812D01*
X102731000Y-92290741D01*
X102731000Y-92113259D01*
X102765624Y-91939188D01*
X102833544Y-91775216D01*
X102932147Y-91627646D01*
X103057646Y-91502147D01*
X103205216Y-91403544D01*
X103369188Y-91335624D01*
X103518488Y-91305927D01*
X103543258Y-91301000D01*
X103720742Y-91301000D01*
X103745512Y-91305927D01*
G37*
G36*
X103745512Y-88765927D02*
G01*
X103894812Y-88795624D01*
X104058784Y-88863544D01*
X104206354Y-88962147D01*
X104331853Y-89087646D01*
X104430456Y-89235216D01*
X104498376Y-89399188D01*
X104533000Y-89573259D01*
X104533000Y-89750741D01*
X104498376Y-89924812D01*
X104430456Y-90088784D01*
X104331853Y-90236354D01*
X104206354Y-90361853D01*
X104058784Y-90460456D01*
X103894812Y-90528376D01*
X103745512Y-90558073D01*
X103720742Y-90563000D01*
X103543258Y-90563000D01*
X103518488Y-90558073D01*
X103369188Y-90528376D01*
X103205216Y-90460456D01*
X103057646Y-90361853D01*
X102932147Y-90236354D01*
X102833544Y-90088784D01*
X102765624Y-89924812D01*
X102731000Y-89750741D01*
X102731000Y-89573259D01*
X102765624Y-89399188D01*
X102833544Y-89235216D01*
X102932147Y-89087646D01*
X103057646Y-88962147D01*
X103205216Y-88863544D01*
X103369188Y-88795624D01*
X103518488Y-88765927D01*
X103543258Y-88761000D01*
X103720742Y-88761000D01*
X103745512Y-88765927D01*
G37*
G36*
X103745512Y-86225927D02*
G01*
X103894812Y-86255624D01*
X104058784Y-86323544D01*
X104206354Y-86422147D01*
X104331853Y-86547646D01*
X104430456Y-86695216D01*
X104498376Y-86859188D01*
X104533000Y-87033259D01*
X104533000Y-87210741D01*
X104498376Y-87384812D01*
X104430456Y-87548784D01*
X104331853Y-87696354D01*
X104206354Y-87821853D01*
X104058784Y-87920456D01*
X103894812Y-87988376D01*
X103745512Y-88018073D01*
X103720742Y-88023000D01*
X103543258Y-88023000D01*
X103518488Y-88018073D01*
X103369188Y-87988376D01*
X103205216Y-87920456D01*
X103057646Y-87821853D01*
X102932147Y-87696354D01*
X102833544Y-87548784D01*
X102765624Y-87384812D01*
X102731000Y-87210741D01*
X102731000Y-87033259D01*
X102765624Y-86859188D01*
X102833544Y-86695216D01*
X102932147Y-86547646D01*
X103057646Y-86422147D01*
X103205216Y-86323544D01*
X103369188Y-86255624D01*
X103518488Y-86225927D01*
X103543258Y-86221000D01*
X103720742Y-86221000D01*
X103745512Y-86225927D01*
G37*
G36*
X103745512Y-83685927D02*
G01*
X103894812Y-83715624D01*
X104058784Y-83783544D01*
X104206354Y-83882147D01*
X104331853Y-84007646D01*
X104430456Y-84155216D01*
X104498376Y-84319188D01*
X104533000Y-84493259D01*
X104533000Y-84670741D01*
X104498376Y-84844812D01*
X104430456Y-85008784D01*
X104331853Y-85156354D01*
X104206354Y-85281853D01*
X104058784Y-85380456D01*
X103894812Y-85448376D01*
X103745512Y-85478073D01*
X103720742Y-85483000D01*
X103543258Y-85483000D01*
X103518488Y-85478073D01*
X103369188Y-85448376D01*
X103205216Y-85380456D01*
X103057646Y-85281853D01*
X102932147Y-85156354D01*
X102833544Y-85008784D01*
X102765624Y-84844812D01*
X102731000Y-84670741D01*
X102731000Y-84493259D01*
X102765624Y-84319188D01*
X102833544Y-84155216D01*
X102932147Y-84007646D01*
X103057646Y-83882147D01*
X103205216Y-83783544D01*
X103369188Y-83715624D01*
X103518488Y-83685927D01*
X103543258Y-83681000D01*
X103720742Y-83681000D01*
X103745512Y-83685927D01*
G37*
G36*
X103745512Y-81145927D02*
G01*
X103894812Y-81175624D01*
X104058784Y-81243544D01*
X104206354Y-81342147D01*
X104331853Y-81467646D01*
X104430456Y-81615216D01*
X104498376Y-81779188D01*
X104533000Y-81953259D01*
X104533000Y-82130741D01*
X104498376Y-82304812D01*
X104430456Y-82468784D01*
X104331853Y-82616354D01*
X104206354Y-82741853D01*
X104058784Y-82840456D01*
X103894812Y-82908376D01*
X103745512Y-82938073D01*
X103720742Y-82943000D01*
X103543258Y-82943000D01*
X103518488Y-82938073D01*
X103369188Y-82908376D01*
X103205216Y-82840456D01*
X103057646Y-82741853D01*
X102932147Y-82616354D01*
X102833544Y-82468784D01*
X102765624Y-82304812D01*
X102731000Y-82130741D01*
X102731000Y-81953259D01*
X102765624Y-81779188D01*
X102833544Y-81615216D01*
X102932147Y-81467646D01*
X103057646Y-81342147D01*
X103205216Y-81243544D01*
X103369188Y-81175624D01*
X103518488Y-81145927D01*
X103543258Y-81141000D01*
X103720742Y-81141000D01*
X103745512Y-81145927D01*
G37*
G36*
X104533000Y-80403000D02*
G01*
X102731000Y-80403000D01*
X102731000Y-78601000D01*
X104533000Y-78601000D01*
X104533000Y-80403000D01*
G37*
G36*
X103459999Y-75499737D02*
G01*
X103469608Y-75502652D01*
X103478472Y-75507390D01*
X103495370Y-75521258D01*
X103495459Y-75521347D01*
X103495571Y-75521423D01*
X103495757Y-75521575D01*
X103495771Y-75521557D01*
X103515786Y-75535033D01*
X103538392Y-75544489D01*
X103562408Y-75549354D01*
X103575097Y-75550000D01*
X104500000Y-75550000D01*
X104500000Y-77050000D01*
X103575089Y-77050000D01*
X103550703Y-77052402D01*
X103527254Y-77059515D01*
X103505643Y-77071066D01*
X103495690Y-77078456D01*
X103486275Y-77086199D01*
X103478516Y-77092581D01*
X103469661Y-77097326D01*
X103466623Y-77098251D01*
X103460085Y-77100242D01*
X103460082Y-77100242D01*
X103460050Y-77100252D01*
X103450000Y-77101247D01*
X103449935Y-77101247D01*
X103443825Y-77101852D01*
X102456140Y-77101852D01*
X102440001Y-77100263D01*
X102430392Y-77097348D01*
X102421528Y-77092610D01*
X102413763Y-77086237D01*
X102407390Y-77078472D01*
X102402652Y-77069608D01*
X102399737Y-77059999D01*
X102398148Y-77043860D01*
X102398148Y-75556140D01*
X102399737Y-75540001D01*
X102402652Y-75530392D01*
X102407390Y-75521528D01*
X102413763Y-75513763D01*
X102421528Y-75507390D01*
X102430392Y-75502652D01*
X102440001Y-75499737D01*
X102456140Y-75498148D01*
X103443860Y-75498148D01*
X103459999Y-75499737D01*
G37*
G36*
X107459999Y-75499737D02*
G01*
X107469608Y-75502652D01*
X107478472Y-75507390D01*
X107486237Y-75513763D01*
X107492610Y-75521528D01*
X107497348Y-75530392D01*
X107500263Y-75540001D01*
X107501852Y-75556140D01*
X107501852Y-77043860D01*
X107500263Y-77059999D01*
X107497348Y-77069608D01*
X107492610Y-77078472D01*
X107486237Y-77086237D01*
X107478472Y-77092610D01*
X107469608Y-77097348D01*
X107459999Y-77100263D01*
X107443860Y-77101852D01*
X106456140Y-77101852D01*
X106440001Y-77100263D01*
X106430392Y-77097348D01*
X106421528Y-77092610D01*
X106404630Y-77078742D01*
X106404541Y-77078653D01*
X106404429Y-77078577D01*
X106404243Y-77078425D01*
X106404229Y-77078443D01*
X106384214Y-77064967D01*
X106361608Y-77055511D01*
X106337592Y-77050646D01*
X106324903Y-77050000D01*
X105400000Y-77050000D01*
X105400000Y-75550000D01*
X106324911Y-75550000D01*
X106349297Y-75547598D01*
X106372746Y-75540485D01*
X106394357Y-75528934D01*
X106404310Y-75521544D01*
X106414165Y-75513439D01*
X106421484Y-75507419D01*
X106430339Y-75502674D01*
X106433377Y-75501749D01*
X106439915Y-75499758D01*
X106439918Y-75499758D01*
X106439950Y-75499748D01*
X106450000Y-75498753D01*
X106450065Y-75498753D01*
X106456175Y-75498148D01*
X107443860Y-75498148D01*
X107459999Y-75499737D01*
G37*
G36*
X107434015Y-71632973D02*
G01*
X107537879Y-71664479D01*
X107565055Y-71679005D01*
X107633600Y-71715643D01*
X107717501Y-71784499D01*
X107786357Y-71868400D01*
X107805354Y-71903942D01*
X107837521Y-71964121D01*
X107869027Y-72067985D01*
X107877000Y-72148933D01*
X107877000Y-73303067D01*
X107869027Y-73384015D01*
X107837521Y-73487879D01*
X107786356Y-73583600D01*
X107717501Y-73667501D01*
X107648645Y-73724009D01*
X107633599Y-73736357D01*
X107581907Y-73763987D01*
X107537878Y-73787521D01*
X107434014Y-73819027D01*
X107326000Y-73829666D01*
X107217985Y-73819027D01*
X107114121Y-73787521D01*
X107070093Y-73763987D01*
X107018401Y-73736357D01*
X107005643Y-73725887D01*
X106934499Y-73667501D01*
X106865644Y-73583600D01*
X106814479Y-73487878D01*
X106782973Y-73384014D01*
X106775000Y-73303066D01*
X106775001Y-72148933D01*
X106782974Y-72067985D01*
X106814480Y-71964121D01*
X106846647Y-71903942D01*
X106865644Y-71868400D01*
X106934500Y-71784499D01*
X107018401Y-71715643D01*
X107086946Y-71679005D01*
X107114122Y-71664479D01*
X107217986Y-71632973D01*
X107326000Y-71622334D01*
X107434015Y-71632973D01*
G37*
G36*
X116074015Y-71632973D02*
G01*
X116177879Y-71664479D01*
X116205055Y-71679005D01*
X116273600Y-71715643D01*
X116357501Y-71784499D01*
X116426357Y-71868400D01*
X116445354Y-71903942D01*
X116477521Y-71964121D01*
X116509027Y-72067985D01*
X116517000Y-72148933D01*
X116517000Y-73303067D01*
X116509027Y-73384015D01*
X116477521Y-73487879D01*
X116426356Y-73583600D01*
X116357501Y-73667501D01*
X116288645Y-73724009D01*
X116273599Y-73736357D01*
X116221907Y-73763987D01*
X116177878Y-73787521D01*
X116074014Y-73819027D01*
X115966000Y-73829666D01*
X115857985Y-73819027D01*
X115754121Y-73787521D01*
X115710093Y-73763987D01*
X115658401Y-73736357D01*
X115645643Y-73725887D01*
X115574499Y-73667501D01*
X115505644Y-73583600D01*
X115454479Y-73487878D01*
X115422973Y-73384014D01*
X115415000Y-73303066D01*
X115415001Y-72148933D01*
X115422974Y-72067985D01*
X115454480Y-71964121D01*
X115486647Y-71903942D01*
X115505644Y-71868400D01*
X115574500Y-71784499D01*
X115658401Y-71715643D01*
X115726946Y-71679005D01*
X115754122Y-71664479D01*
X115857986Y-71632973D01*
X115966000Y-71622334D01*
X116074015Y-71632973D01*
G37*
G36*
X114645672Y-71834449D02*
G01*
X114645674Y-71834450D01*
X114645675Y-71834450D01*
X114714103Y-71862793D01*
X114775686Y-71903942D01*
X114828058Y-71956314D01*
X114869207Y-72017897D01*
X114897550Y-72086325D01*
X114912000Y-72158967D01*
X114912000Y-72233033D01*
X114897550Y-72305675D01*
X114869207Y-72374103D01*
X114828058Y-72435686D01*
X114775686Y-72488058D01*
X114714103Y-72529207D01*
X114645675Y-72557550D01*
X114645674Y-72557550D01*
X114645672Y-72557551D01*
X114573034Y-72572000D01*
X114498966Y-72572000D01*
X114426328Y-72557551D01*
X114426326Y-72557550D01*
X114426325Y-72557550D01*
X114357897Y-72529207D01*
X114296314Y-72488058D01*
X114243942Y-72435686D01*
X114202793Y-72374103D01*
X114174450Y-72305675D01*
X114160000Y-72233033D01*
X114160000Y-72158967D01*
X114174450Y-72086325D01*
X114202793Y-72017897D01*
X114243942Y-71956314D01*
X114296314Y-71903942D01*
X114357897Y-71862793D01*
X114426325Y-71834450D01*
X114426326Y-71834450D01*
X114426328Y-71834449D01*
X114498966Y-71820000D01*
X114573034Y-71820000D01*
X114645672Y-71834449D01*
G37*
G36*
X108865672Y-71834449D02*
G01*
X108865674Y-71834450D01*
X108865675Y-71834450D01*
X108934103Y-71862793D01*
X108995686Y-71903942D01*
X109048058Y-71956314D01*
X109089207Y-72017897D01*
X109117550Y-72086325D01*
X109132000Y-72158967D01*
X109132000Y-72233033D01*
X109117550Y-72305675D01*
X109089207Y-72374103D01*
X109048058Y-72435686D01*
X108995686Y-72488058D01*
X108934103Y-72529207D01*
X108865675Y-72557550D01*
X108865674Y-72557550D01*
X108865672Y-72557551D01*
X108793034Y-72572000D01*
X108718966Y-72572000D01*
X108646328Y-72557551D01*
X108646326Y-72557550D01*
X108646325Y-72557550D01*
X108577897Y-72529207D01*
X108516314Y-72488058D01*
X108463942Y-72435686D01*
X108422793Y-72374103D01*
X108394450Y-72305675D01*
X108380000Y-72233033D01*
X108380000Y-72158967D01*
X108394450Y-72086325D01*
X108422793Y-72017897D01*
X108463942Y-71956314D01*
X108516314Y-71903942D01*
X108577897Y-71862793D01*
X108646325Y-71834450D01*
X108646326Y-71834450D01*
X108646328Y-71834449D01*
X108718966Y-71820000D01*
X108793034Y-71820000D01*
X108865672Y-71834449D01*
G37*
G36*
X116074015Y-67702973D02*
G01*
X116177879Y-67734479D01*
X116205055Y-67749005D01*
X116273600Y-67785643D01*
X116357501Y-67854499D01*
X116426357Y-67938400D01*
X116462995Y-68006945D01*
X116477521Y-68034121D01*
X116509027Y-68137985D01*
X116517000Y-68218933D01*
X116517000Y-68873067D01*
X116509027Y-68954015D01*
X116477521Y-69057879D01*
X116426356Y-69153600D01*
X116357501Y-69237501D01*
X116288645Y-69294009D01*
X116273599Y-69306357D01*
X116221907Y-69333987D01*
X116177878Y-69357521D01*
X116074014Y-69389027D01*
X115966000Y-69399666D01*
X115857985Y-69389027D01*
X115754121Y-69357521D01*
X115710093Y-69333987D01*
X115658401Y-69306357D01*
X115645643Y-69295887D01*
X115574499Y-69237501D01*
X115505644Y-69153600D01*
X115454479Y-69057878D01*
X115422973Y-68954014D01*
X115415000Y-68873066D01*
X115415000Y-68218933D01*
X115422973Y-68137985D01*
X115454480Y-68034121D01*
X115454482Y-68034118D01*
X115505645Y-67938399D01*
X115574500Y-67854499D01*
X115658401Y-67785643D01*
X115726946Y-67749005D01*
X115754122Y-67734479D01*
X115857986Y-67702973D01*
X115966000Y-67692334D01*
X116074015Y-67702973D01*
G37*
G36*
X107434015Y-67702973D02*
G01*
X107537879Y-67734479D01*
X107565055Y-67749005D01*
X107633600Y-67785643D01*
X107717501Y-67854499D01*
X107786357Y-67938400D01*
X107822995Y-68006945D01*
X107837521Y-68034121D01*
X107869027Y-68137985D01*
X107877000Y-68218933D01*
X107877000Y-68873067D01*
X107869027Y-68954015D01*
X107837521Y-69057879D01*
X107786356Y-69153600D01*
X107717501Y-69237501D01*
X107648645Y-69294009D01*
X107633599Y-69306357D01*
X107581907Y-69333987D01*
X107537878Y-69357521D01*
X107434014Y-69389027D01*
X107326000Y-69399666D01*
X107217985Y-69389027D01*
X107114121Y-69357521D01*
X107070093Y-69333987D01*
X107018401Y-69306357D01*
X107005643Y-69295887D01*
X106934499Y-69237501D01*
X106865644Y-69153600D01*
X106814479Y-69057878D01*
X106782973Y-68954014D01*
X106775000Y-68873066D01*
X106775000Y-68218933D01*
X106782973Y-68137985D01*
X106814480Y-68034121D01*
X106814482Y-68034118D01*
X106865645Y-67938399D01*
X106934500Y-67854499D01*
X107018401Y-67785643D01*
X107086946Y-67749005D01*
X107114122Y-67734479D01*
X107217986Y-67702973D01*
X107326000Y-67692334D01*
X107434015Y-67702973D01*
G37*
M02*
